<svg xmlns="http://www.w3.org/2000/svg" viewBox="0 0 64 64">
  <defs>
    <linearGradient id="g" x1="0" y1="0" x2="1" y2="1">
      <stop offset="0" stop-color="#00549A"/>
      <stop offset="1" stop-color="#0070CA"/>
    </linearGradient>
  </defs>
  <rect width="64" height="64" rx="14" fill="url(#g)"/>
  <g fill="#fff">
    <path d="M35.22 13.6a2.8 2.8 0 0 0-2.75-2.23h-.94a2.8 2.8 0 0 0-2.75 2.23l-.52 2.55a16.35 16.35 0 0 0-2.47 1.02l-2.36-1.1a2.8 2.8 0 0 0-3.44.92l-.47.8a2.8 2.8 0 0 0 .27 3.55l1.77 1.88a16.9 16.9 0 0 0-.44 2.64l-2.4 1.06a2.8 2.8 0 0 0-1.67 3.14l.18.9a2.8 2.8 0 0 0 2.6 2.24l2.58.12c.48.82 1.03 1.58 1.66 2.26l-.78 2.45a2.8 2.8 0 0 0 1.24 3.33l.8.47a2.8 2.8 0 0 0 3.5-.48l1.95-1.72c.85.22 1.72.37 2.63.44l1.08 2.37a2.8 2.8 0 0 0 3.16 1.62l.9-.2a2.8 2.8 0 0 0 2.18-2.64l.1-2.58c.82-.49 1.58-1.05 2.25-1.68l2.47.75a2.8 2.8 0 0 0 3.3-1.28l.47-.8a2.8 2.8 0 0 0-.5-3.5l-1.74-1.93c.21-.84.35-1.7.41-2.57l2.4-1.09a2.8 2.8 0 0 0 1.57-3.2l-.2-.9a2.8 2.8 0 0 0-2.64-2.15l-2.55-.1a16.4 16.4 0 0 0-1.7-2.3l.73-2.4a2.8 2.8 0 0 0-1.3-3.3l-.8-.45a2.8 2.8 0 0 0-3.48.54l-1.86 1.72c-.82-.2-1.66-.34-2.52-.41l-1.1-2.42ZM32 38.32A6.32 6.32 0 1 1 32 25.68a6.32 6.32 0 0 1 0 12.64Z"/>
  </g>
</svg>
