<svg xmlns="http://www.w3.org/2000/svg" xmlns:xlink="http://www.w3.org/1999/xlink" width="1200" zoomAndPan="magnify" viewBox="0 0 900 899.99999" height="1200" preserveAspectRatio="xMidYMid meet" version="1.0"><defs><g/><clipPath id="4c727b2806"><rect x="0" width="652" y="0" height="893"/></clipPath></defs><g transform="matrix(1, 0, 0, 1, 124, 0.000000000000108392)"><g clip-path="url(#4c727b2806)"><g fill="#000000" fill-opacity="1"><g transform="translate(0.636932, 670.404827)"><g><path d="M 310 153.578125 C 295.71875 153.578125 280.597656 150.597656 264.640625 144.640625 C 248.691406 138.691406 234.523438 128.335938 222.140625 113.578125 C 209.765625 98.816406 201.195312 77.863281 196.4375 50.71875 C 194.050781 35.476562 190.238281 24.523438 185 17.859375 C 179.757812 11.191406 170.953125 5.476562 158.578125 0.71875 C 133.816406 -7.375 111.550781 -23.679688 91.78125 -48.203125 C 72.019531 -72.734375 56.546875 -103.09375 45.359375 -139.28125 C 34.171875 -175.476562 28.578125 -215.003906 28.578125 -257.859375 C 28.578125 -295.003906 32.742188 -329.53125 41.078125 -361.4375 C 49.410156 -393.34375 61.078125 -421.316406 76.078125 -445.359375 C 91.078125 -469.410156 108.578125 -488.101562 128.578125 -501.4375 C 148.578125 -514.769531 170.003906 -521.4375 192.859375 -521.4375 C 215.710938 -521.4375 237.019531 -514.769531 256.78125 -501.4375 C 276.550781 -488.101562 294.050781 -469.410156 309.28125 -445.359375 C 324.519531 -421.316406 336.304688 -393.34375 344.640625 -361.4375 C 352.972656 -329.53125 357.140625 -295.003906 357.140625 -257.859375 C 357.140625 -214.046875 351.304688 -173.6875 339.640625 -136.78125 C 327.972656 -99.882812 312.019531 -69.289062 291.78125 -45 C 271.550781 -20.71875 248.578125 -5.003906 222.859375 2.140625 C 220.003906 2.617188 218.578125 3.925781 218.578125 6.0625 C 218.578125 8.207031 219.765625 10.234375 222.140625 12.140625 C 228.335938 16.429688 233.578125 21.789062 237.859375 28.21875 C 242.148438 34.644531 245.722656 42.859375 248.578125 52.859375 C 257.148438 80.472656 268.21875 100.472656 281.78125 112.859375 C 295.351562 125.242188 310.238281 131.4375 326.4375 131.4375 C 340.71875 131.4375 355.238281 126.910156 370 117.859375 C 373.8125 115.472656 377.382812 114.753906 380.71875 115.703125 C 384.050781 116.660156 385.71875 119.046875 385.71875 122.859375 C 385.71875 126.191406 383.8125 129.523438 380 132.859375 C 372.382812 138.578125 362.976562 143.457031 351.78125 147.5 C 340.59375 151.550781 326.664062 153.578125 310 153.578125 Z M 192.859375 -12.859375 C 226.671875 -12.859375 253.097656 -33.09375 272.140625 -73.5625 C 291.191406 -114.039062 300.71875 -175.472656 300.71875 -257.859375 C 300.71875 -340.242188 291.191406 -401.554688 272.140625 -441.796875 C 253.097656 -482.035156 226.671875 -502.15625 192.859375 -502.15625 C 159.523438 -502.15625 133.210938 -482.035156 113.921875 -441.796875 C 94.640625 -401.554688 85 -340.242188 85 -257.859375 C 85 -175.472656 94.640625 -114.039062 113.921875 -73.5625 C 133.210938 -33.09375 159.523438 -12.859375 192.859375 -12.859375 Z M 192.859375 -12.859375 "/></g></g></g><g fill="#000000" fill-opacity="1"><g transform="translate(386.353701, 670.404827)"><g><path d="M 96.4375 6.421875 C 71.664062 6.421875 51.78125 1.898438 36.78125 -7.140625 C 21.78125 -16.191406 14.28125 -28.097656 14.28125 -42.859375 C 14.28125 -50.953125 16.660156 -57.257812 21.421875 -61.78125 C 26.191406 -66.3125 32.382812 -68.578125 40 -68.578125 C 49.050781 -68.578125 55.003906 -65.71875 57.859375 -60 C 60.710938 -54.28125 62.851562 -47.847656 64.28125 -40.703125 C 65.707031 -33.566406 68.921875 -27.140625 73.921875 -21.421875 C 78.929688 -15.710938 87.863281 -12.859375 100.71875 -12.859375 C 127.863281 -12.859375 149.882812 -25.59375 166.78125 -51.0625 C 183.6875 -76.539062 192.140625 -110 192.140625 -151.4375 C 192.140625 -243.34375 165.953125 -289.296875 113.578125 -289.296875 C 94.523438 -289.296875 78.332031 -284.769531 65 -275.71875 C 57.382812 -270 51.671875 -269.285156 47.859375 -273.578125 C 45.003906 -278.335938 46.910156 -284.050781 53.578125 -290.71875 L 105 -339.296875 C 125.957031 -358.816406 141.195312 -376.671875 150.71875 -392.859375 C 160.238281 -409.054688 165 -425.25 165 -441.4375 C 165 -459.050781 161.070312 -472.738281 153.21875 -482.5 C 145.363281 -492.269531 134.53125 -497.15625 120.71875 -497.15625 C 102.625 -497.15625 87.382812 -490.488281 75 -477.15625 C 62.613281 -463.820312 54.519531 -445.488281 50.71875 -422.15625 C 49.757812 -415.007812 46.1875 -411.4375 40 -411.4375 C 33.332031 -411.4375 30.472656 -415.722656 31.421875 -424.296875 C 34.753906 -453.816406 45.828125 -477.382812 64.640625 -495 C 83.453125 -512.625 106.664062 -521.4375 134.28125 -521.4375 C 158.09375 -521.4375 177.257812 -514.890625 191.78125 -501.796875 C 206.3125 -488.703125 213.578125 -471.203125 213.578125 -449.296875 C 213.578125 -411.671875 182.863281 -371.671875 121.4375 -329.296875 L 105 -317.859375 C 103.09375 -316.429688 102.492188 -314.882812 103.203125 -313.21875 C 103.921875 -311.550781 105.472656 -310.957031 107.859375 -311.4375 C 115.953125 -313.8125 124.046875 -315 132.140625 -315 C 154.046875 -315 173.332031 -308.804688 190 -296.421875 C 206.664062 -284.046875 219.757812 -266.785156 229.28125 -244.640625 C 238.8125 -222.503906 243.578125 -197.148438 243.578125 -168.578125 C 243.578125 -145.710938 239.53125 -123.800781 231.4375 -102.84375 C 223.34375 -81.894531 212.390625 -63.207031 198.578125 -46.78125 C 184.765625 -30.351562 169.046875 -17.378906 151.421875 -7.859375 C 133.804688 1.660156 115.476562 6.421875 96.4375 6.421875 Z M 96.4375 6.421875 "/></g></g></g></g></g></svg>